<mxfile host="app.diagrams.net" agent="Mozilla/5.0 (Windows NT 10.0; Win64; x64) AppleWebKit/537.36 (KHTML, like Gecko) Chrome/134.0.0.0 Safari/537.36" version="26.1.0" pages="2">
  <diagram name="Quy trình" id="10a91c8b-09ff-31b1-d368-03940ed4cc9e">
    <mxGraphModel dx="2787" dy="868" grid="1" gridSize="10" guides="1" tooltips="1" connect="1" arrows="1" fold="1" page="1" pageScale="1" pageWidth="1100" pageHeight="850" background="none" math="0" shadow="0">
      <root>
        <mxCell id="0" />
        <mxCell id="1" parent="0" />
        <mxCell id="_narEm6EG1hEdy50W6Ck-32" style="edgeStyle=orthogonalEdgeStyle;rounded=0;orthogonalLoop=1;jettySize=auto;html=1;exitX=0;exitY=0.5;exitDx=0;exitDy=0;entryX=0.5;entryY=0;entryDx=0;entryDy=0;fontSize=12;fontFamily=Times New Roman;" edge="1" parent="1" source="62893188c0fa7362-1" target="_narEm6EG1hEdy50W6Ck-3">
          <mxGeometry relative="1" as="geometry" />
        </mxCell>
        <mxCell id="_narEm6EG1hEdy50W6Ck-33" style="edgeStyle=orthogonalEdgeStyle;rounded=0;orthogonalLoop=1;jettySize=auto;html=1;exitX=0;exitY=0.75;exitDx=0;exitDy=0;entryX=0.5;entryY=0;entryDx=0;entryDy=0;fontSize=12;fontFamily=Times New Roman;" edge="1" parent="1" source="62893188c0fa7362-1" target="_narEm6EG1hEdy50W6Ck-12">
          <mxGeometry relative="1" as="geometry" />
        </mxCell>
        <mxCell id="_narEm6EG1hEdy50W6Ck-34" style="edgeStyle=orthogonalEdgeStyle;rounded=0;orthogonalLoop=1;jettySize=auto;html=1;exitX=0;exitY=1;exitDx=0;exitDy=0;entryX=0.5;entryY=0;entryDx=0;entryDy=0;fontSize=12;fontFamily=Times New Roman;" edge="1" parent="1" source="62893188c0fa7362-1" target="_narEm6EG1hEdy50W6Ck-16">
          <mxGeometry relative="1" as="geometry" />
        </mxCell>
        <mxCell id="_narEm6EG1hEdy50W6Ck-35" style="edgeStyle=orthogonalEdgeStyle;rounded=0;orthogonalLoop=1;jettySize=auto;html=1;exitX=0.5;exitY=1;exitDx=0;exitDy=0;entryX=0.5;entryY=0;entryDx=0;entryDy=0;fontSize=12;fontFamily=Times New Roman;" edge="1" parent="1" source="62893188c0fa7362-1" target="_narEm6EG1hEdy50W6Ck-21">
          <mxGeometry relative="1" as="geometry" />
        </mxCell>
        <mxCell id="62893188c0fa7362-1" value="Quy trình thiết kế CSDL quan hệ" style="whiteSpace=wrap;html=1;rounded=1;shadow=1;labelBackgroundColor=none;strokeWidth=1;fontFamily=Times New Roman;fontSize=12;align=center;" parent="1" vertex="1">
          <mxGeometry x="610" y="50" width="120" height="60" as="geometry" />
        </mxCell>
        <mxCell id="_narEm6EG1hEdy50W6Ck-3" value="&lt;h3 style=&quot;box-sizing: border-box; margin-top: 0px; margin-bottom: 0.5rem; font-weight: 400; line-height: 1.3; color: rgb(55, 71, 79); background-color: rgb(255, 255, 255);&quot; id=&quot;yui_3_17_2_1_1741954542549_21&quot; dir=&quot;ltr&quot;&gt;&lt;span style=&quot;box-sizing: border-box;&quot; id=&quot;yui_3_17_2_1_1741954542549_20&quot;&gt;&lt;font&gt;Bước 1: Xác định mục đích của CSDL(Phân tích Yêu cầu)&lt;/font&gt;&lt;/span&gt;&lt;/h3&gt;&lt;div&gt;&lt;span style=&quot;box-sizing: border-box;&quot;&gt;&lt;br&gt;&lt;/span&gt;&lt;/div&gt;" style="whiteSpace=wrap;html=1;rounded=1;shadow=1;labelBackgroundColor=none;strokeWidth=1;fontFamily=Times New Roman;fontSize=12;align=left;spacingTop=1;spacingLeft=4;" vertex="1" parent="1">
          <mxGeometry y="240" width="120" height="120" as="geometry" />
        </mxCell>
        <mxCell id="_narEm6EG1hEdy50W6Ck-18" value="" style="edgeStyle=orthogonalEdgeStyle;rounded=0;orthogonalLoop=1;jettySize=auto;html=1;align=left;spacingTop=1;spacingLeft=4;fontSize=12;fontFamily=Times New Roman;" edge="1" parent="1" source="_narEm6EG1hEdy50W6Ck-12" target="_narEm6EG1hEdy50W6Ck-17">
          <mxGeometry relative="1" as="geometry" />
        </mxCell>
        <mxCell id="_narEm6EG1hEdy50W6Ck-12" value="&lt;h3 style=&quot;box-sizing: border-box; margin-top: 0px; margin-bottom: 0.5rem; line-height: 1.3; background-color: rgb(255, 255, 255); color: rgb(55, 71, 79);&quot; id=&quot;yui_3_17_2_1_1741954542549_21&quot; dir=&quot;ltr&quot;&gt;&lt;font color=&quot;#37474f&quot;&gt;&lt;span style=&quot;font-weight: 400;&quot;&gt;Bước 2: Tập hợp Dữ liệu, Tổ chức các bảng và Chỉ định các khóa chính&lt;/span&gt;&lt;/font&gt;&lt;/h3&gt;&lt;div&gt;&lt;br&gt;&lt;/div&gt;" style="whiteSpace=wrap;html=1;rounded=1;shadow=1;labelBackgroundColor=none;strokeWidth=1;fontFamily=Times New Roman;fontSize=12;align=left;spacingTop=1;spacingLeft=4;" vertex="1" parent="1">
          <mxGeometry x="160" y="240" width="120" height="120" as="geometry" />
        </mxCell>
        <mxCell id="_narEm6EG1hEdy50W6Ck-20" value="" style="edgeStyle=orthogonalEdgeStyle;rounded=0;orthogonalLoop=1;jettySize=auto;html=1;align=left;spacingTop=1;spacingLeft=4;fontSize=12;fontFamily=Times New Roman;" edge="1" parent="1" source="_narEm6EG1hEdy50W6Ck-16" target="_narEm6EG1hEdy50W6Ck-19">
          <mxGeometry relative="1" as="geometry" />
        </mxCell>
        <mxCell id="_narEm6EG1hEdy50W6Ck-16" value="&lt;h3 style=&quot;box-sizing: border-box; margin-top: 0px; margin-bottom: 0.5rem; line-height: 1.3; background-color: rgb(255, 255, 255); color: rgb(55, 71, 79);&quot; id=&quot;yui_3_17_2_1_1741954542549_21&quot; dir=&quot;ltr&quot;&gt;&lt;font color=&quot;#37474f&quot;&gt;&lt;span style=&quot;font-weight: 400;&quot;&gt;Step 3: Tạo mối quan hệ giữa các bảng&lt;/span&gt;&lt;/font&gt;&lt;/h3&gt;&lt;div&gt;&lt;br&gt;&lt;/div&gt;" style="whiteSpace=wrap;html=1;rounded=1;shadow=1;labelBackgroundColor=none;strokeWidth=1;fontFamily=Times New Roman;fontSize=12;align=left;spacingTop=1;spacingLeft=4;" vertex="1" parent="1">
          <mxGeometry x="420" y="240" width="120" height="120" as="geometry" />
        </mxCell>
        <mxCell id="_narEm6EG1hEdy50W6Ck-17" value="Khóa chính (Primary Key/PK)" style="whiteSpace=wrap;html=1;fontFamily=Times New Roman;rounded=1;shadow=1;labelBackgroundColor=none;strokeWidth=1;align=left;spacingTop=1;spacingLeft=4;fontSize=12;" vertex="1" parent="1">
          <mxGeometry x="160" y="400" width="120" height="60" as="geometry" />
        </mxCell>
        <mxCell id="_narEm6EG1hEdy50W6Ck-19" value="&lt;div&gt;one-to-many(một ~ nhiều\1-n)&lt;/div&gt;&lt;div&gt;&lt;br&gt;&lt;/div&gt;&lt;div&gt;many-to-many(nhiều~ nhiều\n-n)&lt;/div&gt;&lt;div&gt;&lt;br&gt;&lt;/div&gt;&lt;div&gt;one-to-one(một~một\1-1)&lt;/div&gt;&lt;div&gt;&lt;br&gt;&lt;/div&gt;" style="whiteSpace=wrap;html=1;fontFamily=Times New Roman;rounded=1;shadow=1;labelBackgroundColor=none;strokeWidth=1;align=left;spacingTop=1;spacingLeft=4;fontSize=12;" vertex="1" parent="1">
          <mxGeometry x="365" y="400" width="230" height="150" as="geometry" />
        </mxCell>
        <mxCell id="_narEm6EG1hEdy50W6Ck-23" value="" style="edgeStyle=orthogonalEdgeStyle;rounded=0;orthogonalLoop=1;jettySize=auto;html=1;fontSize=12;fontFamily=Times New Roman;" edge="1" parent="1" source="_narEm6EG1hEdy50W6Ck-21" target="_narEm6EG1hEdy50W6Ck-22">
          <mxGeometry relative="1" as="geometry" />
        </mxCell>
        <mxCell id="_narEm6EG1hEdy50W6Ck-21" value="&lt;h3 style=&quot;box-sizing: border-box; margin-top: 0px; margin-bottom: 0.5rem; line-height: 1.3; background-color: rgb(255, 255, 255); color: rgb(55, 71, 79);&quot; id=&quot;yui_3_17_2_1_1741954542549_21&quot; dir=&quot;ltr&quot;&gt;&lt;font color=&quot;#37474f&quot;&gt;&lt;span style=&quot;font-weight: 400;&quot;&gt;Step 4: Tinh chỉnh và chuẩn hóa thiết kế&lt;/span&gt;&lt;/font&gt;&lt;/h3&gt;&lt;div&gt;&lt;br&gt;&lt;/div&gt;" style="whiteSpace=wrap;html=1;rounded=1;shadow=1;labelBackgroundColor=none;strokeWidth=1;fontFamily=Times New Roman;fontSize=12;align=left;spacingTop=1;spacingLeft=4;" vertex="1" parent="1">
          <mxGeometry x="810" y="240" width="120" height="120" as="geometry" />
        </mxCell>
        <mxCell id="_narEm6EG1hEdy50W6Ck-25" value="" style="edgeStyle=orthogonalEdgeStyle;rounded=0;orthogonalLoop=1;jettySize=auto;html=1;fontSize=12;fontFamily=Times New Roman;" edge="1" parent="1" source="_narEm6EG1hEdy50W6Ck-22" target="_narEm6EG1hEdy50W6Ck-24">
          <mxGeometry relative="1" as="geometry" />
        </mxCell>
        <mxCell id="_narEm6EG1hEdy50W6Ck-27" value="" style="edgeStyle=orthogonalEdgeStyle;rounded=0;orthogonalLoop=1;jettySize=auto;html=1;fontSize=12;fontFamily=Times New Roman;" edge="1" parent="1" source="_narEm6EG1hEdy50W6Ck-22" target="_narEm6EG1hEdy50W6Ck-26">
          <mxGeometry relative="1" as="geometry" />
        </mxCell>
        <mxCell id="_narEm6EG1hEdy50W6Ck-28" style="edgeStyle=orthogonalEdgeStyle;rounded=0;orthogonalLoop=1;jettySize=auto;html=1;exitX=1;exitY=0.5;exitDx=0;exitDy=0;entryX=0.5;entryY=0;entryDx=0;entryDy=0;fontSize=12;fontFamily=Times New Roman;" edge="1" parent="1" source="_narEm6EG1hEdy50W6Ck-22" target="_narEm6EG1hEdy50W6Ck-29">
          <mxGeometry relative="1" as="geometry">
            <mxPoint x="1000" y="510" as="targetPoint" />
          </mxGeometry>
        </mxCell>
        <mxCell id="_narEm6EG1hEdy50W6Ck-31" style="edgeStyle=orthogonalEdgeStyle;rounded=0;orthogonalLoop=1;jettySize=auto;html=1;exitX=1;exitY=0.25;exitDx=0;exitDy=0;fontSize=12;fontFamily=Times New Roman;" edge="1" parent="1" source="_narEm6EG1hEdy50W6Ck-22" target="_narEm6EG1hEdy50W6Ck-30">
          <mxGeometry relative="1" as="geometry" />
        </mxCell>
        <mxCell id="_narEm6EG1hEdy50W6Ck-22" value="&lt;div&gt;Chuẩn hóa&lt;/div&gt;&lt;div&gt;&lt;br&gt;&lt;/div&gt;" style="whiteSpace=wrap;html=1;fontFamily=Times New Roman;align=left;rounded=1;shadow=1;labelBackgroundColor=none;strokeWidth=1;spacingTop=1;spacingLeft=4;fontSize=12;" vertex="1" parent="1">
          <mxGeometry x="810" y="400" width="120" height="60" as="geometry" />
        </mxCell>
        <mxCell id="_narEm6EG1hEdy50W6Ck-24" value="Chuẩn thứ hai (2NF)" style="whiteSpace=wrap;html=1;fontFamily=Times New Roman;align=left;rounded=1;shadow=1;labelBackgroundColor=none;strokeWidth=1;spacingTop=1;spacingLeft=4;fontSize=12;" vertex="1" parent="1">
          <mxGeometry x="810" y="510" width="120" height="60" as="geometry" />
        </mxCell>
        <mxCell id="_narEm6EG1hEdy50W6Ck-26" value="Chuẩn thứ nhất(1NF)" style="whiteSpace=wrap;html=1;fontFamily=Times New Roman;align=left;rounded=1;shadow=1;labelBackgroundColor=none;strokeWidth=1;spacingTop=1;spacingLeft=4;fontSize=12;" vertex="1" parent="1">
          <mxGeometry x="680" y="510" width="120" height="60" as="geometry" />
        </mxCell>
        <mxCell id="_narEm6EG1hEdy50W6Ck-29" value="Chuẩn thứ ba (3NF)" style="whiteSpace=wrap;html=1;fontFamily=Times New Roman;align=left;rounded=1;shadow=1;labelBackgroundColor=none;strokeWidth=1;spacingTop=1;spacingLeft=4;fontSize=12;" vertex="1" parent="1">
          <mxGeometry x="950" y="510" width="120" height="60" as="geometry" />
        </mxCell>
        <mxCell id="_narEm6EG1hEdy50W6Ck-30" value="Chuẩn cao cấp hơn" style="whiteSpace=wrap;html=1;fontFamily=Times New Roman;align=left;rounded=1;shadow=1;labelBackgroundColor=none;strokeWidth=1;spacingTop=1;spacingLeft=4;fontSize=12;" vertex="1" parent="1">
          <mxGeometry x="1100" y="510" width="120" height="60" as="geometry" />
        </mxCell>
        <mxCell id="QyzxwSXGNl9yyaxV6N6--1" value="" style="rounded=1;whiteSpace=wrap;html=1;" vertex="1" parent="1">
          <mxGeometry x="580" y="300" width="120" height="60" as="geometry" />
        </mxCell>
        <mxCell id="QyzxwSXGNl9yyaxV6N6--2" value="" style="rounded=1;whiteSpace=wrap;html=1;" vertex="1" parent="1">
          <mxGeometry x="580" y="300" width="120" height="60" as="geometry" />
        </mxCell>
      </root>
    </mxGraphModel>
  </diagram>
  <diagram id="ryZssYNm_CsGJsjBt2bS" name="Trang-2">
    <mxGraphModel grid="1" page="1" gridSize="10" guides="1" tooltips="1" connect="1" arrows="1" fold="1" pageScale="1" pageWidth="827" pageHeight="1169" math="0" shadow="0">
      <root>
        <mxCell id="0" />
        <mxCell id="1" parent="0" />
      </root>
    </mxGraphModel>
  </diagram>
</mxfile>
